<svg width="40" height="40" viewBox="0 0 40 40" fill="none" xmlns="http://www.w3.org/2000/svg">
<path d="M40 20C40 8.9543 31.0457 0 20 0C8.9543 0 0 8.9543 0 20C0 31.0457 8.9543 40 20 40C31.0457 40 40 31.0457 40 20Z" fill="#26292D"/>
<path fill-rule="evenodd" clip-rule="evenodd" d="M12.8889 16.2855H16.1032V26.9998H12.8889V16.2855ZM14.4881 15.214H14.4689C13.5104 15.214 12.8889 14.5059 12.8889 13.6091C12.8889 12.694 13.5287 11.9998 14.5064 11.9998C15.4833 11.9998 16.084 12.6922 16.1032 13.6065C16.1032 14.5032 15.4833 15.214 14.4881 15.214ZM27.8889 26.9998H24.664V21.5076C24.664 20.0703 24.1596 19.0901 23.0503 19.0901C22.2019 19.0901 21.73 19.7512 21.5104 20.3903C21.428 20.6184 21.4409 20.9375 21.4409 21.2575V26.9998H18.2461C18.2461 26.9998 18.2872 17.2717 18.2461 16.3875H21.4409V18.0528C21.6296 17.3247 22.6505 16.2855 24.2797 16.2855C26.3009 16.2855 27.8889 17.8128 27.8889 21.0985V26.9998Z" fill="white"/>
</svg>

