<svg width="40" height="40" viewBox="0 0 40 40" fill="none" xmlns="http://www.w3.org/2000/svg">
<path d="M40 20C40 8.9543 31.0457 0 20 0C8.9543 0 0 8.9543 0 20C0 31.0457 8.9543 40 20 40C31.0457 40 40 31.0457 40 20Z" fill="#26292D"/>
<path fill-rule="evenodd" clip-rule="evenodd" d="M26.9974 16.3293C27.7178 15.8696 28.2706 15.1407 28.53 14.2724C27.8555 14.6991 27.1101 15.0077 26.3148 15.1748C25.6802 14.4512 24.7732 14 23.7694 14C21.8436 14 20.283 15.6653 20.283 17.719C20.283 18.0105 20.3119 18.2947 20.3718 18.566C17.4741 18.4106 14.9047 16.9316 13.1834 14.68C12.8831 15.2311 12.7115 15.8696 12.7115 16.5506C12.7115 17.8403 13.3271 18.9789 14.2631 19.6471C13.6913 19.628 13.1535 19.4588 12.6825 19.1821V19.2279C12.6825 21.0304 13.8839 22.534 15.4814 22.8745C15.1881 22.9617 14.8807 23.0054 14.5614 23.0054C14.3369 23.0054 14.1174 22.983 13.9059 22.9394C14.3489 24.4163 15.6371 25.4932 17.1638 25.5219C15.9694 26.52 14.4656 27.1138 12.8322 27.1138C12.5508 27.1138 12.2724 27.0978 12 27.0627C13.5436 28.1172 15.3767 28.7333 17.3464 28.7333C23.7624 28.7333 27.2688 23.066 27.2688 18.151C27.2688 17.9893 27.2668 17.8286 27.2598 17.67C27.9413 17.1454 28.534 16.49 29 15.744C28.3744 16.0399 27.7018 16.2399 26.9974 16.3293Z" fill="white"/>
</svg>

