<svg xmlns="http://www.w3.org/2000/svg" width="482.129" height="114.809" viewBox="0 0 482.129 114.809">
  <g id="Group_25427" data-name="Group 25427" transform="translate(-24.701 -11.671)">
    <g id="attachment_127500048" transform="translate(24.701 11.671)">
      <g id="_00ccffff" data-name="#00ccffff" transform="translate(0 0.009)">
        <path id="Path_71834" data-name="Path 71834" d="M187.53,190.73c11.614-.179,23.249,0,34.863-.08,9.411,18.2,19.1,36.259,28.313,54.562-6.4-4.2-11.544-9.94-17.486-14.715-10.956-9.979-22.4-19.41-33.457-29.28-2.692-2.3-5.643-4.257-8.484-6.37-.708-.778-1.436-1.555-2.153-2.323Z" transform="translate(-187.53 -190.647)" fill="#0cf"/>
      </g>
      <g id="_02b1edff" data-name="#02b1edff" transform="translate(3.748 0)">
        <path id="Path_71835" data-name="Path 71835" d="M251.515,245.761c9.591-18.383,19.091-36.807,28.831-55.111,11.544.04,23.089-.09,34.634.07a21.026,21.026,0,0,1-2.811,4.1l-.738.678a33.411,33.411,0,0,0-7.477,4.8c-14.206,12.731-28.841,24.963-43.008,37.734-2.871,2.462-5.952,4.8-8.105,7.956,2.572,5.084,8.1,7.477,12.571,10.538-4.706,15.293-8.713,30.785-13.389,46.088-1.356-8.235-.469-16.569-.728-24.854-.179-10.209.12-20.417-.04-30.636a86,86,0,0,0-13.847,10.338c-.907-1.406-1.934-2.732-2.961-4.057-13.808-19.929-29.3-38.651-43.157-58.55,2.841,2.113,5.792,4.068,8.484,6.37,11.056,9.87,22.5,19.3,33.457,29.28,5.942,4.775,11.086,10.518,17.486,14.715C250.917,245.352,251.316,245.621,251.515,245.761Z" transform="translate(-191.29 -190.638)" fill="#02b1ed"/>
      </g>
      <g id="_0375d9ff" data-name="#0375d9ff" transform="translate(1.595 1.886)">
        <path id="Path_71836" data-name="Path 71836" d="M189.13,192.53c.718.768,1.446,1.545,2.153,2.323,13.857,19.9,29.35,38.621,43.157,58.55-7.148-3.739-12.163-10.418-19.4-13.967-.1-.05-.3-.16-.389-.219C209.916,231.5,206,223.305,201.422,215.5,197.335,207.833,192.629,200.486,189.13,192.53Z" transform="translate(-189.13 -192.53)" fill="#0375d9"/>
      </g>
      <g id="_01ccffff" data-name="#01ccffff" transform="translate(49.867 4.857)">
        <path id="Path_71837" data-name="Path 71837" d="M304.143,200.305a33.414,33.414,0,0,1,7.477-4.8c-15.343,20-30.4,40.236-45.45,60.454l-.568.568c-4.476-3.061-10-5.453-12.571-10.538,2.153-3.16,5.234-5.493,8.105-7.956C275.3,225.269,289.937,213.036,304.143,200.305Z" transform="translate(-237.597 -195.51)" fill="#01ccff"/>
        <path id="Path_71838" data-name="Path 71838" d="M237.55,257.628A86,86,0,0,1,251.4,247.29c.159,10.219-.14,20.427.04,30.636.259,8.285-.628,16.619.728,24.854-.04.409-.12,1.216-.159,1.625l-.827-.3C246.193,288.753,242.634,272.951,237.55,257.628Z" transform="translate(-237.55 -195.669)" fill="#01ccff"/>
      </g>
      <g id="_0376d8ff" data-name="#0376d8ff" transform="translate(78.439 4.179)">
        <path id="Path_71839" data-name="Path 71839" d="M311.66,195.508l.738-.678c-2.991,7.527-7.7,14.176-11.355,21.374-4.317,7.6-8.1,15.5-12.811,22.88l-.19.1a39.976,39.976,0,0,0-9.79,7c-3.749,3.569-7.986,6.57-12.043,9.78C281.264,235.744,296.318,215.507,311.66,195.508Z" transform="translate(-266.21 -194.83)" fill="#0376d8"/>
      </g>
      <g id="_024dafff" data-name="#024dafff" transform="translate(27.505 48.792)">
        <path id="Path_71840" data-name="Path 71840" d="M215.12,239.58c7.238,3.549,12.252,10.229,19.4,13.967,1.027,1.326,2.054,2.652,2.961,4.057,5.084,15.323,8.643,31.124,13.628,46.477a34.508,34.508,0,0,1-5.364-8.215c-7.5-13.449-14.824-26.977-22.371-40.4C220.643,250.167,217.433,245.1,215.12,239.58Z" transform="translate(-215.12 -239.58)" fill="#024daf"/>
      </g>
      <g id="_034db0ff" data-name="#034db0ff" transform="translate(64.322 48.533)">
        <path id="Path_71841" data-name="Path 71841" d="M278.21,246.318a39.977,39.977,0,0,1,9.79-7,82.865,82.865,0,0,1-5.333,10.378c-7.647,13.688-15.024,27.516-22.77,41.154-2.642,4.5-4.775,9.292-7.846,13.528.04-.409.12-1.216.16-1.625,4.676-15.3,8.683-30.8,13.389-46.089l.568-.568C270.224,252.888,274.461,249.888,278.21,246.318Z" transform="translate(-252.05 -239.32)" fill="#034db0"/>
      </g>
      <g id="_4e6691ff" data-name="#4e6691ff" transform="translate(62.899 113.294)">
        <path id="Path_71842" data-name="Path 71842" d="M251.218,304.28l.828.3C253.441,306.733,249.095,305.636,251.218,304.28Z" transform="translate(-250.623 -304.28)" fill="#4e6691"/>
      </g>
    </g>
    <g id="VISTA" transform="translate(186.916 29.036)" style="isolation: isolate">
      <g id="Group_25425" data-name="Group 25425" transform="translate(0 0)" style="isolation: isolate">
        <path id="Path_71843" data-name="Path 71843" d="M264.98,461.363,252.9,383.84h21.73l6.74,55.909,31.382-55.909h23.709L290.2,461.363Z" transform="translate(-252.895 -382.681)" fill="#fff"/>
        <path id="Path_71844" data-name="Path 71844" d="M274.014,461.363,291.1,383.84h19.987L294,461.363Z" transform="translate(-199.646 -382.681)" fill="#fff"/>
        <path id="Path_71845" data-name="Path 71845" d="M283.782,448.829l12.085-14.878c5.345,7.092,15.807,11.969,26.382,11.969,6.391,0,8.951-3.25,8.951-5.923,0-8.6-37.425-6.976-37.425-29.988,0-13.135,11.159-26.5,31.727-26.5,12.554,0,24.639,4.532,32.425,12.667l-12.2,14.529c-6.042-6.624-15.691-9.765-23.361-9.765-4.532,0-7.553,2.328-7.553,5.349,0,8.018,37.538,7.089,37.538,29.636,0,15.114-12.085,27.664-31.727,27.664C304.815,463.59,290.871,457.66,283.782,448.829Z" transform="translate(-175.018 -383.511)" fill="#fff"/>
        <path id="Path_71846" data-name="Path 71846" d="M315.085,461.363l13.131-60.085h-21.73l3.947-17.438h63.346l-3.838,17.438H348.323l-13.251,60.085Z" transform="translate(-117.773 -382.681)" fill="#fff"/>
        <path id="Path_71847" data-name="Path 71847" d="M381.843,461.363l-1.278-11.152H349.883l-6.159,11.152H320.015l46.253-77.523h25.22l12.089,77.523ZM375.452,403.6,359.18,432.773h19.758Z" transform="translate(-83.661 -382.681)" fill="#fff"/>
      </g>
    </g>
  </g>
</svg>
